<svg id="Layer_1" data-name="Layer 1" xmlns="http://www.w3.org/2000/svg" width="9.28mm" height="9.28mm" viewBox="0 0 26.31 26.31"><defs><style>.cls-1{fill:#231f20;}</style></defs><title>Artboard 2</title><path class="cls-1" d="M3.54,8.38a.21.21,0,0,1,0-.1c0-.1.06-.14.18-.14H4.83a.56.56,0,0,1,.26,0,.35.35,0,0,1,.1.12l.18.34.76,1.43a.74.74,0,0,1,.07.28.62.62,0,0,1-.07.28l-.5.92a.19.19,0,0,1-.18.13.18.18,0,0,1-.17-.12Zm2.79,8.11a.21.21,0,0,1-.07-.15V13.58a2.73,2.73,0,0,1,.23-1,12.07,12.07,0,0,1,.71-1.42q.17-.3,1.06-2l.44-.84a.48.48,0,0,1,.12-.16.35.35,0,0,1,.23-.06h1.15q.22,0,.22.12a.28.28,0,0,1,0,.12L7.88,13a1.14,1.14,0,0,0-.13.52v2.86a.22.22,0,0,1-.06.15.2.2,0,0,1-.16.07H6.48A.21.21,0,0,1,6.33,16.49Z"/><path class="cls-1" d="M11,19a4.36,4.36,0,0,1,2.19-8.13,4,4,0,0,1,.54,0,.23.23,0,0,1,.2.29l-.19,1a.22.22,0,0,1-.24.19H13.2a2.74,2.74,0,0,0-1.4.38,2.8,2.8,0,0,0-1,1,2.8,2.8,0,0,0,0,2.81,2.8,2.8,0,0,0,1,1,2.74,2.74,0,0,0,1.4.38,2.48,2.48,0,0,0,1.54-.5,2.9,2.9,0,0,0,1-1.33H14.16a.25.25,0,0,1-.24-.24v-.88a.25.25,0,0,1,.24-.24h2.56a.85.85,0,0,1,.44.1.31.31,0,0,1,.16.28,4.61,4.61,0,0,1-.53,2.2A4.05,4.05,0,0,1,15.32,19a4,4,0,0,1-2.12.58A4.28,4.28,0,0,1,11,19Z"/><path class="cls-1" d="M22.45,8.7a.24.24,0,0,1,.06.16v7.92a.22.22,0,0,1-.06.16.2.2,0,0,1-.14.06H21.12a.2.2,0,0,1-.14-.06.21.21,0,0,1-.06-.16V12c0-.07,0-.11,0-.11s-.06,0-.11.08l-.63.9-.64.89a.87.87,0,0,1-.2.2A.52.52,0,0,1,19,14h-.2a.81.81,0,0,1-.29,0,.54.54,0,0,1-.17-.16L17,12c0-.07-.07-.11-.11-.11s0,0,0,.11v1.49a.21.21,0,0,1-.06.16.2.2,0,0,1-.14.06H15.51a.23.23,0,0,1-.22-.22V8.87a.22.22,0,0,1,.07-.16.21.21,0,0,1,.15-.07h1.2a.16.16,0,0,1,.09,0,.28.28,0,0,1,.08.09l1.82,3,.07.07a.2.2,0,0,0,.14,0h0a.16.16,0,0,0,.13-.06l.06-.08,1.81-3,.07-.1a.12.12,0,0,1,.1,0H22.3A.19.19,0,0,1,22.45,8.7Z"/><path class="cls-1" d="M20.85,24.53H1.92a.15.15,0,0,1-.15-.15V1.92a.15.15,0,0,1,.15-.15H24.39a.15.15,0,0,1,.15.15V20.84h1.77V.15A.15.15,0,0,0,26.16,0H.15A.15.15,0,0,0,0,.15v26a.15.15,0,0,0,.15.15h20.7Z"/></svg>